<!DOCTYPE svg PUBLIC "-//W3C//DTD SVG 1.1//EN" "http://www.w3.org/Graphics/SVG/1.1/DTD/svg11.dtd">
<!-- Uploaded to: SVG Repo, www.svgrepo.com, Transformed by: SVG Repo Mixer Tools -->
<svg fill="#fff" height="800px" width="800px" version="1.1" id="Layer_1" xmlns="http://www.w3.org/2000/svg" xmlns:xlink="http://www.w3.org/1999/xlink" viewBox="0 0 392.598 392.598" xml:space="preserve" stroke="#fff">
<g id="SVGRepo_bgCarrier" stroke-width="0"/>
<g id="SVGRepo_tracerCarrier" stroke-linecap="round" stroke-linejoin="round"/>
<g id="SVGRepo_iconCarrier"> <g> <g> <path d="M381.673,370.812h-71.434V83.846c0-6.012-4.849-10.925-10.925-10.925c-6.012,0-10.925,4.849-10.925,10.925v286.966 h-50.295V138.408c0-6.012-4.849-10.925-10.925-10.925c-6.012,0-10.925,4.849-10.925,10.925v232.404h-50.295V192.84 c0-6.012-4.849-10.925-10.925-10.925c-6.077,0-10.925,4.848-10.925,10.925v177.907H93.802V247.402 c0-6.012-4.849-10.925-10.925-10.925c-6.012,0-10.925,4.849-10.925,10.925v123.41H21.786V10.925C21.786,4.913,16.937,0,10.861,0 S0,4.913,0,10.925v370.747c0,6.012,4.849,10.925,10.925,10.925h370.747c6.012,0,10.925-4.848,10.925-10.925 C392.533,375.661,387.685,370.812,381.673,370.812z"/> </g> </g> </g>
</svg>