<?xml version="1.0" encoding="iso-8859-1"?>
<!-- Uploaded to: SVG Repo, www.svgrepo.com, Generator: SVG Repo Mixer Tools -->
<svg version="1.1" id="Layer_1" xmlns="http://www.w3.org/2000/svg" xmlns:xlink="http://www.w3.org/1999/xlink" 
	 viewBox="0 0 512 512" xml:space="preserve">
<polygon style="fill:#E43138;" points="480.606,8.66 256,8.66 224.628,133.127 490.904,101.755 507.67,101.755 "/>
<polygon style="fill:#F25F67;" points="31.394,8.66 4.33,101.755 21.096,101.755 256,133.127 256,8.66 "/>
<polygon style="fill:#C7E5FF;" points="256,0 160.378,55.208 160.378,101.755 21.096,101.755 21.096,512 256,512 "/>
<polygon style="fill:#8BCBF1;" points="490.904,101.755 351.622,101.755 351.622,55.208 256,0 256,512 490.904,512 "/>
<g>
	<path style="fill:#F39624;" d="M161.825,232.842c0-23.084-18.713-41.796-41.796-41.796h-1.505L97.61,327.402l20.915,130.469h43.301
		V232.842z"/>
	<path style="fill:#F39624;" d="M299.301,232.842c0-23.084-18.713-41.796-41.796-41.796H256l-20.915,79.234L256,329.871h43.301
		V232.842z"/>
	<path style="fill:#F39624;" d="M290.808,100.842c0-19.224-15.584-34.809-34.808-34.809l-20.915,34.808L256,135.649
		C275.224,135.649,290.808,120.065,290.808,100.842z"/>
	<path style="fill:#F39624;" d="M436.775,232.842c0-23.084-18.713-41.796-41.796-41.796h-1.505L372.56,329.874l20.915,127.997
		h43.301V232.842H436.775z"/>
</g>
<polygon style="fill:#C75214;" points="299.301,512 299.301,384 256,384 235.085,448 256,512 "/>
<g>
	<path style="fill:#F7C02D;" d="M221.192,100.842c0,19.223,15.584,34.808,34.808,34.808V66.033
		C236.776,66.033,221.192,81.617,221.192,100.842z"/>
	<path style="fill:#F7C02D;" d="M254.495,191.046c-23.083,0-41.796,18.712-41.796,41.796v97.029H256V191.046L254.495,191.046
		L254.495,191.046z"/>
	<path style="fill:#F7C02D;" d="M117.021,191.046c-23.083,0-41.796,18.712-41.796,41.796v225.029h43.301V191.046L117.021,191.046
		L117.021,191.046z"/>
	<path style="fill:#F7C02D;" d="M391.97,191.046c-23.083,0-41.796,18.712-41.796,41.796v225.029h43.301V191.046L391.97,191.046
		L391.97,191.046z"/>
</g>
<rect x="212.699" y="384" style="fill:#E37E31;" width="43.301" height="128"/>
</svg>